<?xml version="1.0" standalone="no"?>
<!DOCTYPE svg PUBLIC "-//W3C//DTD SVG 20010904//EN"
 "http://www.w3.org/TR/2001/REC-SVG-20010904/DTD/svg10.dtd">
<svg version="1.0" xmlns="http://www.w3.org/2000/svg"
 width="512.000000pt" height="512.000000pt" viewBox="0 0 512.000000 512.000000"
 preserveAspectRatio="xMidYMid meet">
<metadata>
Created by potrace 1.11, written by Peter Selinger 2001-2013
</metadata>
<g transform="translate(0.000000,512.000000) scale(0.100000,-0.100000)"
fill="#000000" stroke="none">
<path d="M2437 5115 c-1 -1 -42 -5 -91 -9 -373 -26 -786 -163 -1120 -370 -177
-110 -298 -205 -459 -363 -203 -199 -351 -403 -489 -672 -38 -74 -67 -138 -65
-144 1 -5 33 -10 71 -12 148 -8 260 -18 330 -31 10 -2 44 -6 75 -10 31 -3 59
-8 62 -10 3 -2 34 -8 70 -13 74 -13 75 -13 194 -40 368 -85 782 -228 1093
-379 l84 -41 51 21 c94 38 244 86 354 113 116 29 120 30 203 45 30 6 65 12 76
14 54 11 213 32 309 41 33 3 76 8 95 10 208 25 739 24 995 -1 77 -7 233 -25
258 -29 219 -37 335 -62 441 -96 50 -16 92 -29 92 -29 2 0 -13 64 -20 85 -2 6
-6 24 -10 40 -43 172 -158 444 -259 615 -34 56 -125 194 -149 225 -127 163
-256 303 -383 415 -337 299 -845 535 -1275 595 -25 3 -56 8 -70 10 -75 12
-161 18 -303 19 -86 2 -158 2 -160 1z m111 -165 c104 -114 92 -117 96 29 1 62
2 64 29 68 l27 4 0 -161 c0 -122 -3 -160 -12 -159 -7 0 -55 48 -105 105 l-93
105 0 -106 0 -106 -27 4 -28 4 0 156 c0 103 3 157 10 157 6 0 52 -45 103 -100z"/>
<path d="M161 3426 c-12 -15 -65 -190 -90 -296 -40 -170 -64 -377 -64 -570 0
-92 9 -269 17 -320 3 -14 10 -59 16 -100 56 -348 187 -682 387 -988 42 -65 79
-119 82 -122 3 -3 33 -39 66 -80 33 -41 75 -91 93 -110 19 -19 46 -48 61 -65
15 -16 37 -38 48 -48 20 -18 22 -17 54 11 35 29 299 230 354 268 380 265 585
395 825 527 30 16 60 33 65 37 15 12 339 174 430 215 208 96 419 178 743 288
17 6 32 14 32 17 0 16 -255 257 -355 338 -519 414 -1231 746 -1945 906 -128
29 -313 61 -405 71 -33 4 -67 8 -75 10 -14 4 -154 13 -273 19 -33 2 -61 -2
-66 -8z m148 -807 c21 -57 37 -86 41 -77 4 7 16 48 25 90 18 75 35 97 63 79
14 -8 -68 -313 -86 -319 -6 -2 -12 2 -12 9 0 16 -73 199 -80 199 -3 0 -22 -45
-44 -100 -21 -55 -42 -103 -47 -105 -7 -5 -41 91 -53 149 -3 11 -14 52 -25 91
-12 38 -21 71 -21 72 0 2 13 3 29 3 30 0 31 -2 45 -76 10 -49 30 -104 36 -97
4 4 21 47 39 95 20 51 38 85 45 82 6 -2 26 -45 45 -95z"/>
<path d="M3448 3165 c-2 -2 -42 -6 -90 -10 -48 -3 -102 -8 -120 -10 -18 -2
-62 -6 -98 -10 -93 -9 -360 -53 -460 -77 -97 -22 -281 -75 -324 -93 l-28 -12
72 -42 c39 -22 73 -41 75 -41 11 0 368 -232 385 -250 3 -3 34 -27 70 -54 150
-115 322 -272 423 -388 40 -46 56 -58 72 -53 96 28 328 82 468 110 203 40 177
35 512 80 17 2 66 7 110 10 44 4 94 9 110 11 50 6 303 17 403 18 l94 1 -5 260
c-5 273 -11 343 -30 361 -14 14 -127 53 -232 80 -35 9 -207 44 -240 49 -22 4
-51 8 -65 10 -81 13 -184 26 -245 31 -38 3 -86 8 -105 11 -40 5 -747 13 -752
8z m1613 -451 c3 -2 4 -14 2 -27 -4 -23 -9 -24 -71 -23 -63 1 -66 0 -72 -24
-12 -48 -4 -56 61 -55 58 1 59 1 59 -26 0 -27 -2 -28 -62 -31 l-63 -3 3 -35
c2 -19 6 -37 8 -39 2 -3 33 -4 68 -3 65 1 83 -9 70 -41 -7 -18 -189 -23 -200
-6 -6 10 -8 118 -5 278 l1 38 97 1 c54 0 101 -2 104 -4z"/>
<path d="M5068 2245 c-2 -2 -84 -6 -183 -10 -99 -3 -196 -8 -215 -10 -19 -2
-71 -6 -115 -10 -105 -9 -124 -11 -225 -24 -47 -7 -103 -14 -125 -17 -22 -3
-76 -11 -120 -19 -44 -8 -96 -16 -115 -20 -19 -3 -42 -8 -50 -10 -8 -2 -29 -7
-47 -10 -45 -7 -296 -66 -303 -70 -4 -2 -18 -6 -33 -9 -48 -9 -363 -105 -463
-142 -54 -20 -115 -42 -134 -49 -253 -92 -668 -290 -955 -455 -321 -186 -719
-454 -1017 -689 l-88 -68 38 -34 c274 -248 764 -486 1137 -553 17 -3 41 -8 55
-11 14 -3 45 -8 70 -11 25 -3 54 -9 65 -12 11 -3 144 -6 295 -7 226 -2 297 1
400 16 709 105 1344 506 1749 1104 62 92 82 125 154 257 62 113 184 427 200
519 3 13 12 51 20 84 15 61 22 98 32 170 3 22 8 50 10 61 3 15 -1 23 -15 27
-10 3 -20 4 -22 2z m-2437 -1880 c25 -14 28 -18 18 -36 -7 -14 -16 -18 -27
-13 -9 4 -35 8 -57 8 -36 1 -40 -1 -40 -24 0 -20 11 -31 57 -55 32 -16 64 -39
72 -50 43 -56 -8 -135 -86 -135 -71 0 -113 32 -89 69 7 11 13 10 34 -4 31 -20
76 -16 91 7 14 22 -13 52 -70 77 -47 21 -65 47 -66 93 -2 65 89 100 163 63z"/>
</g>
</svg>
